# xmcd
#
# Track frame offsets:
#	150
#	15320
#	35066
#	53019
#	65227
#	80663
#	100541
#	118479
#	138469
#	158347
#	175462
#	193475
#	207581
#	226047
#	238900
#
# Disc length: 3367 seconds
#
# Revision: 1
# Processed by: cddbd v1.5.2PL0 Copyright (c) Steve Scherf et al.
# Submitted via: audiograbber 1.83.01
#
DISCID=d60d250f
DTITLE=Various Artist - Chartbuster CB60236
DYEAR=1900
DGENRE=karaoke
TTITLE0=Toby Keith - The Angry American (Courtesy Of The Red, White and Blue)
TTITLE1=Alan Jackson - Work In Progress
TTITLE2=Dixie Chicks - Long Time Gone
TTITLE3=Dwight Yoakam - Sitting Pretty
TTITLE4=Eric Heatherly - Last Man Comitted
TTITLE5=Tammy Cochran - Life Happened
TTITLE6=Ty Herndon - A Few Short Years
TTITLE7=Montgomery Gentry - My Town
TTITLE8=Holly Lamar - So This Is Life
TTITLE9=Rascal Flatts - These Days
TTITLE10=Keith Urban - Somebody Like You
TTITLE11=Stevens Sisters, The - Whatever You Are
TTITLE12=Chad Brock - A Man's Gotta Do
TTITLE13=Emerson Drive - Fall Into Me
TTITLE14=Kacey Jones - I Thought He Was Mr. Right, But He Left
EXTD=
EXTT0=
EXTT1=
EXTT2=
EXTT3=
EXTT4=
EXTT5=
EXTT6=
EXTT7=
EXTT8=
EXTT9=
EXTT10=
EXTT11=
EXTT12=
EXTT13=
EXTT14=
PLAYORDER=
